<svg xmlns="http://www.w3.org/2000/svg" viewBox="0 0 68.47 64.88"><defs><style>.cls-1{fill:none;stroke:#000;stroke-linecap:round;stroke-linejoin:round;stroke-width:3px;}</style></defs><title>Asset 4</title><g id="Layer_2" data-name="Layer 2"><g id="Layer_2-2" data-name="Layer 2"><path class="cls-1" d="M3.92,63.38s-2.43-5.06,1.5-11.24S24.34,41.27,24.34,30.78c0,0,4.31,5.81,2.62,11.81,0,0,8.43-6.75,7.49-15,0,0,8.06,8.62,7.12,15.73,0,0,5.62-6.93,4.12-12.73,0,0,8.43,18.54,14.61,22.66s4.87,10.12,4.87,10.12Z"/><path class="cls-1" d="M20.66,63.38c.25-6.68,13.17-13.3,13.57-19.05,0,0,2,8.25.91,10.87,0,0,4.87-2.37,5-5.25,0,0,9.49,7.5,8.49,13.43"/><path class="cls-1" d="M23.84,15.46a5.81,5.81,0,0,0-4.15-1.73H12.53a5.82,5.82,0,0,0,0,11.63H9.93A5.82,5.82,0,1,0,9.93,37H7.32a5.82,5.82,0,1,0,0,11.63H8.81"/><path class="cls-1" d="M55.88,48.62h5.27a5.82,5.82,0,1,0,0-11.63H58.54a5.82,5.82,0,1,0,0-11.63H55.93a5.82,5.82,0,1,0,0-11.63H48.77A5.8,5.8,0,0,0,45,15.1"/><path class="cls-1" d="M48.32,36a6.08,6.08,0,0,0-4.5-10.17H41.09a6.08,6.08,0,1,0,0-12.15H38.37a6.08,6.08,0,0,0,0-12.15H30.89a6.08,6.08,0,1,0,0,12.15H28.16a6.08,6.08,0,0,0,0,12.15H25.44a6.08,6.08,0,0,0-3.11,11.3"/></g></g></svg>