<svg xmlns="http://www.w3.org/2000/svg" viewBox="0 0 62 79.54"><defs><style>.cls-1{fill:none;stroke:#000;stroke-linecap:round;stroke-linejoin:round;stroke-width:3px;}</style></defs><title>Asset 11</title><g id="Layer_2" data-name="Layer 2"><g id="Layer_2-2" data-name="Layer 2"><path class="cls-1" d="M10.33,78H29a2,2,0,0,0,2-2V56.36a2,2,0,0,0-1.52-2L10.85,49.46a2,2,0,0,0-2.56,2V76A2,2,0,0,0,10.33,78Z"/><line class="cls-1" x1="23.75" y1="60.74" x2="23.75" y2="69.25"/><line class="cls-1" x1="15.55" y1="60.74" x2="15.55" y2="69.25"/><path class="cls-1" d="M13.6,50.19l12.11,3.2-1-30.53A1.93,1.93,0,0,0,22.82,21H16.48a1.93,1.93,0,0,0-1.93,1.88Z"/><line class="cls-1" x1="24.9" y1="28.52" x2="14.39" y2="28.52"/><path class="cls-1" d="M33,78H51.69a2,2,0,0,0,2-2V56.36a2,2,0,0,0-1.51-2L33.56,49.46a2,2,0,0,0-2.55,2V76A2,2,0,0,0,33,78Z"/><line class="cls-1" x1="46.46" y1="60.74" x2="46.46" y2="69.25"/><line class="cls-1" x1="38.27" y1="60.74" x2="38.27" y2="69.25"/><path class="cls-1" d="M36.31,50.19l12.11,3.2-1-30.53A1.94,1.94,0,0,0,45.53,21H39.2a1.94,1.94,0,0,0-1.94,1.88Z"/><line class="cls-1" x1="47.61" y1="28.52" x2="37.1" y2="28.52"/><path class="cls-1" d="M21.51,11H19.76A3.26,3.26,0,0,0,20,8.26a3.38,3.38,0,0,0-.18-6.76H7.88A3.39,3.39,0,0,0,4.49,4.89a3.29,3.29,0,0,0,.22,1.17,3.38,3.38,0,0,0,.18,6.76H6.63a3.41,3.41,0,0,0-.41,1.59h0A3.39,3.39,0,0,0,9.61,17.8h8V21h4V17.78a3.37,3.37,0,0,0,3.28-3.37h0A3.39,3.39,0,0,0,21.51,11Z"/><path class="cls-1" d="M40.49,11h1.75a3.26,3.26,0,0,1-.19-2.76,3.38,3.38,0,0,1,.18-6.76H54.12a3.39,3.39,0,0,1,3.39,3.39,3.29,3.29,0,0,1-.22,1.17,3.38,3.38,0,0,1-.18,6.76H55.37a3.41,3.41,0,0,1,.41,1.59h0a3.39,3.39,0,0,1-3.39,3.39h-8V21h-4V17.78a3.37,3.37,0,0,1-3.28-3.37h0A3.39,3.39,0,0,1,40.49,11Z"/></g></g></svg>