<svg xmlns="http://www.w3.org/2000/svg" viewBox="0 0 65.16 70.94"><defs><style>.cls-1,.cls-2,.cls-3{fill:none;stroke:#000;stroke-width:3px;}.cls-1,.cls-2{stroke-miterlimit:10;}.cls-2,.cls-3{stroke-linecap:round;}.cls-3{stroke-linejoin:round;}</style></defs><title>Asset 1</title><g id="Layer_2" data-name="Layer 2"><g id="Layer_2-2" data-name="Layer 2"><ellipse class="cls-1" cx="36.24" cy="9.3" rx="27.42" ry="7.8"/><path class="cls-2" d="M38.32,9.77c10.51,1.09,18,4,18,7.33,0,4.31-12.27,7.8-27.42,7.8S1.5,21.41,1.5,17.1c0-2.21,3.23-4.2,8.41-5.62"/><path class="cls-1" d="M54.65,19.8c3.44,1.37,5.53,3.15,5.53,5.1,0,4.31-10.17,7.81-22.7,7.81s-22.7-3.5-22.7-7.81A3,3,0,0,1,15,23.82"/><path class="cls-1" d="M48.4,31.74a3.12,3.12,0,0,1,1,2.1c0,3.78-8.9,6.83-19.87,6.83S9.61,37.62,9.61,33.84c0-2.18,3-4.13,7.66-5.38"/><path class="cls-1" d="M47.29,36.88c4.39,1.08,7.31,3,7.31,5.16,0,3.37-7,6.11-15.72,6.11S23.16,45.41,23.16,42a2.85,2.85,0,0,1,.59-1.66"/><path class="cls-1" d="M48.15,47a3.09,3.09,0,0,1,1,2.09c0,3.37-7,6.11-15.72,6.11s-15.72-2.74-15.72-6.11a2.84,2.84,0,0,1,.58-1.66c1-1.33,3.07-2.48,5.87-3.27"/><path class="cls-3" d="M22.53,53.48s-2.6,7.92,10.85,16c0,0-4.46-10.48,1.29-14.29"/></g></g></svg>