<svg xmlns="http://www.w3.org/2000/svg" viewBox="0 0 63.64 62.07"><defs><style>.cls-1{fill:none;stroke:#000;stroke-linecap:round;stroke-linejoin:round;stroke-width:3px;}</style></defs><title>Asset 16</title><g id="Layer_2" data-name="Layer 2"><g id="Layer_2-2" data-name="Layer 2"><path class="cls-1" d="M48.26,60.57s20.33-18.64,3.63-43.09c0,0-.49,11.86-6.54,15.25,0,0,5.81-28.32-15.49-31.23,0,0,2.9,10.17,0,14.28s-8,7.27-7.27,12.59c0,0,1.7-13.8-6.53-16.22,0,0-1.94,12.59-8.72,20.82s3.87,26.63,10.41,27.6"/><path class="cls-1" d="M26.23,60.57S14.6,46.29,27.92,36.36c0,0-1.21,6.78,1.57,10.78,0,0,7.39-5.94,4.85-15.13,0,0,17.67,14.88,6.17,28.56"/><line class="cls-1" x1="62.14" y1="60.57" x2="1.5" y2="60.57"/></g></g></svg>