<svg xmlns="http://www.w3.org/2000/svg" viewBox="0 0 83.26 67.46"><defs><style>.cls-1{fill:none;stroke:#000;stroke-linecap:round;stroke-linejoin:round;stroke-width:3px;}</style></defs><title>Asset 9</title><g id="Layer_2" data-name="Layer 2"><g id="Layer_2-2" data-name="Layer 2"><path class="cls-1" d="M21.74,57.81A28.78,28.78,0,1,1,57.91,38.53"/><path class="cls-1" d="M5.83,15.1H24.34a4.43,4.43,0,0,1,4.42,4.43h0A4.42,4.42,0,0,1,24.34,24H15.45A4.42,4.42,0,0,0,11,28.38h0a4.42,4.42,0,0,0,4.42,4.42h7a4.43,4.43,0,0,1,4.43,4.43h0a4.42,4.42,0,0,1-4.43,4.42H3.82"/><path class="cls-1" d="M39.36,38.49a4,4,0,0,1-.6-2.11h0a4,4,0,0,1,4-4h4.45a4,4,0,0,0,4-4h0a4,4,0,0,0-4-4H44.47a4,4,0,0,1-4-4h0a4,4,0,0,1,4-4h11"/><ellipse class="cls-1" cx="26.33" cy="59.1" rx="4.69" ry="6.86"/><ellipse cx="26.33" cy="59.32" rx="1.44" ry="2.1"/><ellipse cx="43.99" cy="59.1" rx="1.44" ry="2.1"/><ellipse cx="36.72" cy="45.39" rx="1.44" ry="2.1"/><line class="cls-1" x1="64.62" y1="65.96" x2="26.33" y2="65.96"/><line class="cls-1" x1="26.33" y1="52.25" x2="64.62" y2="52.25"/><ellipse class="cls-1" cx="43.99" cy="59.1" rx="4.69" ry="6.86"/><path class="cls-1" d="M44,52.25H77.07c2.59,0,4.69,3.06,4.69,6.85S79.66,66,77.07,66H44"/><ellipse class="cls-1" cx="36.72" cy="45.39" rx="4.69" ry="6.86"/><path class="cls-1" d="M36.72,38.53H69.8c2.59,0,4.7,3.07,4.7,6.86s-2.11,6.86-4.7,6.86H36.72"/><line class="cls-1" x1="41.29" y1="43.84" x2="51.09" y2="43.84"/><line class="cls-1" x1="60.31" y1="43.84" x2="66.76" y2="43.84"/><line class="cls-1" x1="81.64" y1="60.62" x2="66.18" y2="60.62"/></g></g></svg>