<svg xmlns="http://www.w3.org/2000/svg" viewBox="0 0 85.29 61.81"><defs><style>.cls-1,.cls-2{fill:none;stroke:#000;stroke-linecap:round;stroke-width:3px;}.cls-1{stroke-miterlimit:10;}.cls-2{stroke-linejoin:round;}</style></defs><title>Asset 12</title><g id="Layer_2" data-name="Layer 2"><g id="Layer_2-2" data-name="Layer 2"><path class="cls-1" d="M7.62,47.77c11.63-6.43,10.57,6.86,25.39,0,11.64-6.43,10.57,6.86,25.39,0C70,41.34,69,54.63,83.79,47.77"/><path class="cls-1" d="M7.62,58.28c11.63-6.43,10.57,6.86,25.39,0,11.64-6.43,10.57,6.86,25.39,0C70,51.85,69,65.14,83.79,58.28"/><path class="cls-2" d="M40,46a16,16,0,0,1,0-32H46.8a11.32,11.32,0,0,0,0,22.64H78"/><path class="cls-2" d="M46.8,14S46.48-5.44,18,4.18C7.62,7.67.09,20.72,1.72,30"/><path class="cls-2" d="M67.47,2.29H80.19a3.6,3.6,0,0,1,3.6,3.6V33a3.6,3.6,0,0,1-3.6,3.6H63.87a0,0,0,0,1,0,0V5.89A3.6,3.6,0,0,1,67.47,2.29Z"/><line class="cls-2" x1="70.94" y1="8.55" x2="76.72" y2="8.55"/><line class="cls-2" x1="70.94" y1="15.09" x2="76.72" y2="15.09"/><line class="cls-2" x1="70.94" y1="21.62" x2="76.72" y2="21.62"/><line class="cls-2" x1="70.94" y1="28.16" x2="76.72" y2="28.16"/><path class="cls-2" d="M13.93,37.83s-8.2-12.37,1.92-20.41"/><path class="cls-2" d="M54.1,18.59h9.76a0,0,0,0,1,0,0v18a0,0,0,0,1,0,0H51.77a0,0,0,0,1,0,0V20.92A2.33,2.33,0,0,1,54.1,18.59Z"/></g></g></svg>