<svg xmlns="http://www.w3.org/2000/svg" viewBox="0 0 57.06 73.51"><defs><style>.cls-1,.cls-2{fill:none;stroke:#000;stroke-linejoin:round;stroke-width:3px;}.cls-2{stroke-linecap:round;}</style></defs><title>Asset 2</title><g id="Layer_2" data-name="Layer 2"><g id="Layer_2-2" data-name="Layer 2"><path class="cls-1" d="M11,32.76H46.07a3.45,3.45,0,0,1,3.45,3.45v6.9a0,0,0,0,1,0,0h-42a0,0,0,0,1,0,0V36.2A3.45,3.45,0,0,1,11,32.76Z"/><path class="cls-1" d="M45.75,43.1H11.31s-.26,16.65,3.83,25.74a5.44,5.44,0,0,0,5,3.17H36.94a5.44,5.44,0,0,0,5-3.17C46,59.75,45.75,43.1,45.75,43.1Z"/><line class="cls-2" x1="11.71" y1="52.79" x2="35.27" y2="52.79"/><path class="cls-2" d="M28.53,32.76,30.41,9.93a9.88,9.88,0,0,1,9.12-8.41h0a9.87,9.87,0,0,1,10.2,7.32l.49,1.81"/><path class="cls-2" d="M29.92,15.83a4.9,4.9,0,0,1,4.51-4.16h0a4.88,4.88,0,0,1,5,3.62l.24.89"/><path class="cls-2" d="M55.29,16.89c.78,3.79-.17,7.19-2.11,7.59S49,22.13,48.25,18.34s2.1-7.59,2.1-7.59S54.51,13.1,55.29,16.89Z"/><path class="cls-2" d="M43.32,20.58c.56,2.71-.11,5.15-1.5,5.43s-3-1.68-3.53-4.39,1.5-5.44,1.5-5.44S42.77,17.87,43.32,20.58Z"/><path class="cls-2" d="M28.53,32.76,26.65,9.93a9.88,9.88,0,0,0-9.12-8.41h0A9.87,9.87,0,0,0,7.33,8.84l-.48,1.81"/><path class="cls-2" d="M1.77,16.89c-.78,3.79.17,7.19,2.11,7.59S8,22.13,8.81,18.34s-2.1-7.59-2.1-7.59S2.55,13.1,1.77,16.89Z"/></g></g></svg>