<svg xmlns="http://www.w3.org/2000/svg" viewBox="0 0 55.98 66.39"><defs><style>.cls-1{fill:none;stroke:#000;stroke-linecap:round;stroke-linejoin:round;stroke-width:3px;}</style></defs><title>Asset 5</title><g id="Layer_2" data-name="Layer 2"><g id="Layer_2-2" data-name="Layer 2"><path class="cls-1" d="M47.26,64.89H5.75A4.24,4.24,0,0,1,1.5,60.65V8.25A4.25,4.25,0,0,1,5.75,4H34.16L51.51,22.72V60.65A4.24,4.24,0,0,1,47.26,64.89Z"/><rect class="cls-1" x="8.81" y="10.98" width="20.58" height="10.89" rx="2.29"/><path class="cls-1" d="M48.79,19.78,36.68,6.72l5-4.69a1.93,1.93,0,0,1,2.74.08L54,12.25A1.94,1.94,0,0,1,53.87,15Z"/><rect class="cls-1" x="13.92" y="30.82" width="25.17" height="23.13" rx="2.79"/></g></g></svg>