<svg xmlns="http://www.w3.org/2000/svg" viewBox="0 0 73.37 75.98"><defs><style>.cls-1{fill:none;stroke:#000;stroke-linecap:round;stroke-linejoin:round;stroke-width:3px;}</style></defs><title>Asset 3</title><g id="Layer_2" data-name="Layer 2"><g id="Layer_2-2" data-name="Layer 2"><path class="cls-1" d="M6.85,27h20a4.93,4.93,0,0,1,4.93,4.93h0a4.93,4.93,0,0,1-4.93,4.92H17A4.93,4.93,0,0,0,12,41.78h0A4.92,4.92,0,0,0,17,46.71h7.78a4.93,4.93,0,0,1,4.93,4.93h0a4.93,4.93,0,0,1-4.93,4.93H4.31"/><path class="cls-1" d="M50.34,55.43a5,5,0,0,1-1.75.32H45.92A4.92,4.92,0,0,0,41,60.68h0a4.92,4.92,0,0,0,4.92,4.92H53"/><path class="cls-1" d="M50.64,36H43.81A4.93,4.93,0,0,0,38.88,41h0a4.93,4.93,0,0,0,4.93,4.93h3.9"/><path class="cls-1" d="M63.39,41.86V15.13a3.66,3.66,0,0,0-3.67-3.66h0a3.66,3.66,0,0,0-3.66,3.66V41.92a2.72,2.72,0,0,1-.78,1.86,6.09,6.09,0,0,0-1.64,3.88,6.16,6.16,0,0,0,6,6.35A6.07,6.07,0,0,0,64.2,43.82,2.89,2.89,0,0,1,63.39,41.86Z"/><line class="cls-1" x1="56.06" y1="24.45" x2="63.39" y2="24.45"/><path class="cls-1" d="M57.82,59.7a30.3,30.3,0,1,1-7.18-39.22"/><path class="cls-1" d="M68.8,37.3V10.58A9.08,9.08,0,0,0,59.72,1.5h0a9.09,9.09,0,0,0-9.08,9.08V37.3a6.83,6.83,0,0,1-1.08,3.76A12.15,12.15,0,1,0,69.85,41,6.72,6.72,0,0,1,68.8,37.3Z"/></g></g></svg>