<svg xmlns="http://www.w3.org/2000/svg" viewBox="0 0 85.29 68.45"><defs><style>.cls-1{fill:none;stroke:#000;stroke-linecap:round;stroke-linejoin:round;stroke-width:3px;}</style></defs><title>Asset 10</title><g id="Layer_2" data-name="Layer 2"><g id="Layer_2-2" data-name="Layer 2"><path class="cls-1" d="M51.26,67l-2.5-4.45a17.63,17.63,0,0,1-2.25-8.6V43.63S64,30.56,65.49,18.85c0,0-13.41,6-19,14.48,0,0-4.76-3.5-5.57-9.07s-7.21-13.41-7.21-13.41l1.85,23.51-9.07-2.68L16.61,21l6.6,15.67,12.58,6.6v11.5a17.67,17.67,0,0,1-1.23,6.47L32.28,67"/><polyline class="cls-1" points="21.79 33.27 12.43 31.29 10.5 25.29"/><line class="cls-1" x1="12.43" y1="31.29" x2="6.43" y2="33.86"/><polyline class="cls-1" points="16.61 20.96 9.75 16.29 7.93 9.64 1.5 7.93"/><line class="cls-1" x1="7.93" y1="9.64" x2="9.75" y2="1.5"/><polyline class="cls-1" points="40.24 21.66 45.98 17.75 47.8 11.11 54.23 9.39 59.28 5.57"/><line class="cls-1" x1="47.8" y1="11.11" x2="45.98" y2="2.96"/><polyline class="cls-1" points="34.52 20.96 25.71 16.07 23.36 9.64"/><polyline class="cls-1" points="61.63 28.09 70.71 31.5 72.86 39.64"/><polyline class="cls-1" points="70.71 31.5 80.14 31.29 83.79 28.09"/><polyline class="cls-1" points="65.49 18.85 72.86 12.21 75 5.57"/><line class="cls-1" x1="72.86" y1="12.21" x2="79.07" y2="14.44"/><line class="cls-1" x1="62.75" y1="66.95" x2="17.73" y2="66.95"/><polyline class="cls-1" points="35 59.92 39.36 59.15 40.56 56.66"/><polyline class="cls-1" points="47.89 42.55 43.14 39.64 41.05 35.93"/></g></g></svg>