<svg xmlns="http://www.w3.org/2000/svg" viewBox="0 0 86.04 64.22"><defs><style>.cls-1{fill:none;stroke:#000;stroke-linecap:round;stroke-linejoin:round;stroke-width:3px;}</style></defs><title>Asset 15</title><g id="Layer_2" data-name="Layer 2"><g id="Layer_2-2" data-name="Layer 2"><polyline class="cls-1" points="79.39 43.57 73.81 27.58 66.92 21.92 63.97 12.32 54.13 1.5 43.06 16.51 40.11 27.82 32.48 34.71 30.76 43.57"/><polyline class="cls-1" points="46.04 43.57 49.46 20.69 54.13 1.5"/><polyline class="cls-1" points="41.12 23.95 33.96 18.23 23.38 21.09 16.98 28.81 10.09 31.48 6.65 43.57"/><polyline class="cls-1" points="20.67 43.57 22.64 32.99 30.76 24.63 33.96 18.23"/><line class="cls-1" x1="84.54" y1="43.57" x2="1.5" y2="43.57"/><line class="cls-1" x1="31.91" y1="51.12" x2="43.02" y2="51.12"/><line class="cls-1" x1="52.08" y1="58.25" x2="62.15" y2="58.25"/><line class="cls-1" x1="22.69" y1="62.72" x2="36.01" y2="62.72"/><line class="cls-1" x1="69.53" y1="58.25" x2="79.98" y2="58.25"/><line class="cls-1" x1="13.54" y1="51.12" x2="20.67" y2="51.12"/><line class="cls-1" x1="52.52" y1="37.07" x2="53.13" y2="31.95"/><line class="cls-1" x1="70.77" y1="43.57" x2="69.45" y2="36.1"/><line class="cls-1" x1="59.66" y1="21.46" x2="58.69" y2="16.78"/></g></g></svg>