<svg xmlns="http://www.w3.org/2000/svg" viewBox="0 0 70.46 72.52"><defs><style>.cls-1{fill:none;stroke:#000;stroke-linecap:round;stroke-linejoin:round;stroke-width:3px;}</style></defs><title>Asset 13</title><g id="Layer_2" data-name="Layer 2"><g id="Layer_2-2" data-name="Layer 2"><path class="cls-1" d="M12.14,34.73c0-.27,0-.52,0-.79a15.7,15.7,0,0,1,30.1-6.26A9.81,9.81,0,0,1,46,26.94a10,10,0,0,1,9.78,7.89,10.89,10.89,0,0,1,1.72-.15,11.51,11.51,0,0,1,0,23H13a11.5,11.5,0,0,1-.86-23Z"/><circle class="cls-1" cx="35.62" cy="5.07" r="3.57"/><circle class="cls-1" cx="64.75" cy="66.36" r="3.57"/><circle class="cls-1" cx="23.49" cy="42.36" r="3.57"/><circle class="cls-1" cx="5.07" cy="67.45" r="3.57"/><path class="cls-1" d="M17.53,34.45a11.25,11.25,0,0,1,9.53-10.6"/><line class="cls-1" x1="56.75" y1="53.2" x2="45.18" y2="53.2"/></g></g></svg>