<svg xmlns="http://www.w3.org/2000/svg" viewBox="0 0 36.79 73.73"><defs><style>.cls-1{fill:none;stroke:#000;stroke-linecap:round;stroke-linejoin:round;stroke-width:3px;}</style></defs><title>Asset 7</title><g id="Layer_2" data-name="Layer 2"><g id="Layer_2-2" data-name="Layer 2"><rect class="cls-1" x="1.5" y="1.5" width="33.79" height="70.73" rx="6.02"/><path class="cls-1" d="M22.71,49V16.14a4.31,4.31,0,0,0-4.31-4.31h0a4.31,4.31,0,0,0-4.32,4.31V49a7.19,7.19,0,0,0-2.84,5.39,7.26,7.26,0,0,0,7,7.48A7.16,7.16,0,0,0,22.71,49Z"/><line class="cls-1" x1="1.5" y1="44.62" x2="6.43" y2="44.62"/><line class="cls-1" x1="1.5" y1="36.43" x2="6.43" y2="36.43"/><line class="cls-1" x1="1.5" y1="28.25" x2="6.43" y2="28.25"/><line class="cls-1" x1="1.5" y1="20.06" x2="6.43" y2="20.06"/><line class="cls-1" x1="14.08" y1="27.1" x2="22.71" y2="27.1"/></g></g></svg>