<svg xmlns="http://www.w3.org/2000/svg" viewBox="0 0 75.7 71.07"><defs><style>.cls-1{fill:none;stroke:#000;stroke-linecap:round;stroke-linejoin:round;stroke-width:3px;}</style></defs><title>Asset 8</title><g id="Layer_2" data-name="Layer 2"><g id="Layer_2-2" data-name="Layer 2"><path class="cls-1" d="M39.19,13V37.06c21.75,3.72,35-6.54,35-6.54v-11S60.94,9.3,39.19,13Z"/><line class="cls-1" x1="63.34" y1="14.39" x2="63.34" y2="35.68"/><line class="cls-1" x1="50.05" y1="37.85" x2="50.05" y2="12.22"/><path class="cls-1" d="M23.46,10.15h0a2.92,2.92,0,0,1,2.92,2.92v56.5a0,0,0,0,1,0,0H20.55a0,0,0,0,1,0,0V13.07a2.92,2.92,0,0,1,2.92-2.92Z"/><line class="cls-1" x1="1.5" y1="69.57" x2="56.69" y2="69.57"/><line class="cls-1" x1="39.19" y1="16.16" x2="26.38" y2="22.49"/><line class="cls-1" x1="39.19" y1="33.92" x2="26.38" y2="27.58"/><circle class="cls-1" cx="23.46" cy="5.83" r="4.33"/></g></g></svg>