<svg xmlns="http://www.w3.org/2000/svg" viewBox="0 0 65.36 76.54"><defs><style>.cls-1{fill:none;stroke:#000;stroke-linecap:round;stroke-linejoin:round;stroke-width:3px;}</style></defs><title>Asset 6</title><g id="Layer_2" data-name="Layer 2"><g id="Layer_2-2" data-name="Layer 2"><path class="cls-1" d="M35.86,33.23a5.51,5.51,0,0,1,2,2.15L45.91,51,58.85,75H7.08L20,51,28.1,35.38a5.41,5.41,0,0,1,2-2.15"/><path class="cls-1" d="M24,43.34a6.08,6.08,0,0,0,4,2.07v4.68a2.57,2.57,0,0,0,2.41,2.7,2.53,2.53,0,0,0,2.39-2.43,2.25,2.25,0,0,0,1.35.46,2.57,2.57,0,0,0,2.41-2.7V45.44h.91a6,6,0,0,0,4.49-2.08"/><line class="cls-1" x1="1.5" y1="75.04" x2="63.86" y2="75.04"/><path class="cls-1" d="M47.57,13.88a4.11,4.11,0,0,0-1.7-3.33,4,4,0,0,0,.34-1.63,4.12,4.12,0,0,0-3.57-4.07,4.11,4.11,0,0,0-7.51-1.44,4.17,4.17,0,0,0-2.33-.72,4.1,4.1,0,0,0-3.31,1.69,4.12,4.12,0,0,0-7,2.31A4.19,4.19,0,0,0,22.81,9c-.11,0-.22,0-.34,0a4.12,4.12,0,0,0-1.83,7.81A4.08,4.08,0,0,0,20.42,18,4.09,4.09,0,0,0,26,21.86a4.11,4.11,0,0,0,3.67,2.28,3.27,3.27,0,0,0,.45,0v9.7A2.9,2.9,0,0,0,33,36.7h0a2.9,2.9,0,0,0,2.89-2.9V25.23a4.11,4.11,0,0,0,3.28-2.17,4,4,0,0,0,3.18.28,4.18,4.18,0,0,0,2.74-3,4.06,4.06,0,0,0-.25-2.62A4.11,4.11,0,0,0,47.57,13.88Z"/><line class="cls-1" x1="14.36" y1="75.04" x2="20.89" y2="63.02"/></g></g></svg>